<svg width="24" height="24" viewBox="0 0 24 24" fill="none" xmlns="http://www.w3.org/2000/svg">
<path fill-rule="evenodd" clip-rule="evenodd" d="M24 19V12C24 11.735 23.895 11.48 23.707 11.293C23.52 11.105 23.265 11 23 11H1C0.735 11 0.48 11.105 0.293 11.293C0.105 11.48 0 11.735 0 12V19H1V17H23V19H24ZM5 10V9C5 8.448 5.448 8 6 8H10C10.552 8 11 8.448 11 9V10H13V9C13 8.448 13.448 8 14 8H18C18.552 8 19 8.448 19 9V10H22V6C22 5.735 21.895 5.48 21.707 5.293C21.52 5.105 21.265 5 21 5H3C2.735 5 2.48 5.105 2.293 5.293C2.105 5.48 2 5.735 2 6V10H5Z" fill="black"/>
</svg>
