<svg width="186" height="186" viewBox="0 0 186 186" fill="none" xmlns="http://www.w3.org/2000/svg">
<circle cx="93" cy="93" r="93" fill="#EAB44B"/>
<path fill-rule="evenodd" clip-rule="evenodd" d="M135 117.5V93C135 92.0725 134.633 91.18 133.975 90.5255C133.32 89.8675 132.427 89.5 131.5 89.5H54.5C53.5725 89.5 52.68 89.8675 52.0255 90.5255C51.3675 91.18 51 92.0725 51 93V117.5H54.5V110.5H131.5V117.5H135ZM68.5 86V82.5C68.5 80.568 70.068 79 72 79H86C87.932 79 89.5 80.568 89.5 82.5V86H96.5V82.5C96.5 80.568 98.068 79 100 79H114C115.932 79 117.5 80.568 117.5 82.5V86H128V72C128 71.0725 127.633 70.18 126.975 69.5255C126.32 68.8675 125.427 68.5 124.5 68.5H61.5C60.5725 68.5 59.68 68.8675 59.0255 69.5255C58.3675 70.18 58 71.0725 58 72V86H68.5Z" fill="#334053"/>
</svg>
