<svg width="24" height="24" viewBox="0 0 24 24" fill="none" xmlns="http://www.w3.org/2000/svg">
<g clip-path="url(#clip0_38:16)">
<path fill-rule="evenodd" clip-rule="evenodd" d="M18.496 24H18.495C17.78 24 16.995 23.431 16.995 22.5V14C16.995 14 15.823 13.997 14.528 14C15.33 7.004 17.631 2.80701e-06 19.188 2.80701e-06C19.635 2.80701e-06 19.992 0.357003 19.995 0.851003C20.005 2.246 19.998 17.463 19.996 22.5C19.996 23.328 19.324 24 18.496 24V24ZM6.991 11.551C6.991 10.86 6.558 10.634 5.614 9.878C4.917 9.318 4.437 8.445 4.526 7.556C4.778 5.019 5.388 -0.0189972 5.388 -0.0189972H5.988V5.981H6.991L7.214 -0.0189972H7.821L7.994 5.981H8.997L9.239 -0.0189972H9.801L10 5.981H11.003V-0.0189972H11.552C11.552 -0.0189972 12.226 4.986 12.503 7.531C12.601 8.433 12.094 9.323 11.381 9.887C10.432 10.638 10 10.854 10 11.556V22.481C10 23.309 9.327 23.981 8.495 23.981C7.664 23.981 6.991 23.309 6.991 22.481V11.551V11.551Z" fill="black"/>
</g>
<defs>
<clipPath id="clip0_38:16">
<rect width="24" height="24" fill="white"/>
</clipPath>
</defs>
</svg>
