<svg width="186" height="186" viewBox="0 0 186 186" fill="none" xmlns="http://www.w3.org/2000/svg">
<circle cx="93" cy="93" r="93" fill="#EAB44B"/>
<g clip-path="url(#clip0_25:33)">
<path fill-rule="evenodd" clip-rule="evenodd" d="M111.176 127H111.173C109.117 127 106.861 125.364 106.861 122.688V98.2501C106.861 98.2501 103.491 98.2414 99.768 98.2501C102.074 78.1366 108.689 58.0001 113.165 58.0001C114.451 58.0001 115.477 59.0264 115.486 60.4467C115.514 64.4573 115.494 108.206 115.488 122.688C115.488 125.068 113.556 127 111.176 127V127ZM78.0991 91.2092C78.0991 89.2226 76.8542 88.5728 74.1402 86.3993C72.1364 84.7893 70.7564 82.2794 71.0122 79.7236C71.7367 72.4297 73.4905 57.9454 73.4905 57.9454H75.2155V75.1954H78.0991L78.7402 57.9454H80.4854L80.9827 75.1954H83.8664L84.5621 57.9454H86.1779L86.75 75.1954H89.6336V57.9454H91.212C91.212 57.9454 93.1497 72.3348 93.9461 79.6517C94.2279 82.2449 92.7702 84.8037 90.7204 86.4252C87.992 88.5843 86.75 89.2053 86.75 91.2236V122.633C86.75 125.013 84.8151 126.945 82.4231 126.945C80.034 126.945 78.0991 125.013 78.0991 122.633V91.2092V91.2092Z" fill="#334053"/>
</g>
<defs>
<clipPath id="clip0_25:33">
<rect width="69" height="69" fill="white" transform="translate(58 58)"/>
</clipPath>
</defs>
</svg>
