<svg width="40" height="40" viewBox="0 0 40 40" fill="none" xmlns="http://www.w3.org/2000/svg">
<path d="M20 0C8.955 0 0 8.955 0 20C0 31.045 8.955 40 20 40C31.045 40 40 31.045 40 20C40 8.955 31.045 0 20 0ZM30.11 16.075C30.415 22.8083 25.3933 30.315 16.5033 30.315C13.8 30.315 11.285 29.5217 9.16667 28.1633C11.7067 28.4633 14.2417 27.7567 16.2533 26.1817C14.16 26.1433 12.3917 24.7583 11.78 22.8567C12.5317 23 13.2717 22.9583 13.9433 22.775C11.6417 22.3117 10.0517 20.2383 10.1033 18.02C10.75 18.3783 11.4867 18.5933 12.2717 18.6183C10.14 17.1933 9.53667 14.3783 10.79 12.2267C13.15 15.1233 16.6783 17.0283 20.6567 17.2283C19.9583 14.235 22.23 11.35 25.3217 11.35C26.6967 11.35 27.9417 11.9317 28.815 12.8617C29.905 12.6483 30.9317 12.2483 31.855 11.7C31.4967 12.8183 30.7383 13.755 29.75 14.3483C30.7183 14.2317 31.6417 13.975 32.4983 13.5933C31.8583 14.5567 31.0483 15.4 30.11 16.075V16.075Z" fill="white"/>
</svg>
