<svg width="40" height="40" viewBox="0 0 40 40" fill="none" xmlns="http://www.w3.org/2000/svg">
<path d="M20 0C8.955 0 0 8.955 0 20C0 31.045 8.955 40 20 40C31.045 40 40 31.045 40 20C40 8.955 31.045 0 20 0ZM27.4017 28.1533C23.8983 28.3933 16.095 28.3933 12.5967 28.1533C8.80333 27.8933 8.36167 26.0367 8.33333 20C8.36167 13.9517 8.80833 12.1067 12.5967 11.8467C16.095 11.6067 23.9 11.6067 27.4017 11.8467C31.1967 12.1067 31.6367 13.9633 31.6667 20C31.6367 26.0483 31.1917 27.8933 27.4017 28.1533ZM16.6667 16.0967L24.8617 19.9933L16.6667 23.9033V16.0967V16.0967Z" fill="white"/>
</svg>
